<?xml version="1.0" encoding="utf-8" standalone="no"?>
<!DOCTYPE svg PUBLIC "-//W3C//DTD SVG 1.1//EN"
  "http://www.w3.org/Graphics/SVG/1.1/DTD/svg11.dtd">
<!-- Created with matplotlib (http://matplotlib.org/) -->
<svg height="384pt" version="1.1" viewBox="0 0 269 384" width="269pt" xmlns="http://www.w3.org/2000/svg" xmlns:xlink="http://www.w3.org/1999/xlink">
 <defs>
  <style type="text/css">
*{stroke-linecap:square;stroke-linejoin:round;}
  </style>
 </defs>
 <g id="figure_1">
  <g id="patch_1">
   <path d="
M0 384.737
L269.046 384.737
L269.046 0
L0 0
z
" style="fill:none;opacity:0.0;"/>
  </g>
  <g id="axes_1">
   <g id="patch_2">
    <path d="
M25.0694 360.86
L255.469 360.86
L255.469 15.2597
L25.0694 15.2597
z
" style="fill:none;opacity:0.0;"/>
   </g>
   <g id="patch_3">
    <path clip-path="url(#pbb8b53ce43)" d="
M169.069 274.46
C166.471 271.862 163.534 269.627 160.337 267.817
C157.14 266.007 153.712 264.638 150.148 263.746
L140.269 303.26
L169.069 274.46
z
" style="fill:none;stroke:#000000;"/>
   </g>
   <g id="Quiver_1">
    <defs>
     <path d="
M-0.61094 -0.61094
L51.4906 -52.7125
L49.6578 -53.3234
L57.6 -57.6
L53.3234 -49.6578
L52.7125 -51.4906
L0.61094 0.61094
L-0.61094 -0.61094" id="C0_0_d29bfa7da5"/>
     <path d="
M-0.61094 -0.61094
L51.4906 -52.7125
L49.6578 -53.3234
L57.6 -57.6
L53.3234 -49.6578
L52.7125 -51.4906
L0.61094 0.61094
L-0.61094 -0.61094" id="C0_1_d29bfa7da5"/>
     <path d="
M-0.61094 -0.61094
L51.4906 -52.7125
L49.6578 -53.3234
L57.6 -57.6
L53.3234 -49.6578
L52.7125 -51.4906
L0.61094 0.61094
L-0.61094 -0.61094" id="C0_2_d29bfa7da5"/>
    </defs>
    <g clip-path="url(#pbb8b53ce43)">
     <use style="fill:#ff0000;" x="140.269375" xlink:href="#C0_0_d29bfa7da5" y="303.2596875"/>
    </g>
    <g clip-path="url(#pbb8b53ce43)">
     <use style="fill:#ff0000;" x="140.269375" xlink:href="#C0_1_d29bfa7da5" y="303.2596875"/>
    </g>
    <g clip-path="url(#pbb8b53ce43)">
     <use style="fill:#ff0000;" x="140.269375" xlink:href="#C0_2_d29bfa7da5" y="303.2596875"/>
    </g>
   </g>
   <g id="Quiver_2">
    <defs>
     <path d="
M-0.772785 0.386393
L-54.8953 -107.859
L-56.0544 -106.313
L-57.6 -115.2
L-51.4177 -108.631
L-53.3497 -108.631
L0.772785 -0.386393
L-0.772785 0.386393" id="C1_0_bacde0a7ed"/>
     <path d="
M-0.772785 0.386393
L-54.8953 -107.859
L-56.0544 -106.313
L-57.6 -115.2
L-51.4177 -108.631
L-53.3497 -108.631
L0.772785 -0.386393
L-0.772785 0.386393" id="C1_1_bacde0a7ed"/>
     <path d="
M-0.772785 0.386393
L-54.8953 -107.859
L-56.0544 -106.313
L-57.6 -115.2
L-51.4177 -108.631
L-53.3497 -108.631
L0.772785 -0.386393
L-0.772785 0.386393" id="C1_2_bacde0a7ed"/>
    </defs>
    <g clip-path="url(#pbb8b53ce43)">
     <use style="fill:#0000ff;" x="140.269375" xlink:href="#C1_0_bacde0a7ed" y="303.2596875"/>
    </g>
    <g clip-path="url(#pbb8b53ce43)">
     <use style="fill:#0000ff;" x="140.269375" xlink:href="#C1_1_bacde0a7ed" y="303.2596875"/>
    </g>
    <g clip-path="url(#pbb8b53ce43)">
     <use style="fill:#0000ff;" x="140.269375" xlink:href="#C1_2_bacde0a7ed" y="303.2596875"/>
    </g>
   </g>
   <g id="Quiver_3">
    <defs>
     <path d="
M-0.838203 -0.209551
L54.8758 -223.066
L52.9899 -222.647
L57.6 -230.4
L58.0191 -221.389
L56.5522 -222.647
L0.838203 0.209551
L-0.838203 -0.209551" id="C2_0_1ea29fede8"/>
     <path d="
M-0.838203 -0.209551
L54.8758 -223.066
L52.9899 -222.647
L57.6 -230.4
L58.0191 -221.389
L56.5522 -222.647
L0.838203 0.209551
L-0.838203 -0.209551" id="C2_1_1ea29fede8"/>
     <path d="
M-0.838203 -0.209551
L54.8758 -223.066
L52.9899 -222.647
L57.6 -230.4
L58.0191 -221.389
L56.5522 -222.647
L0.838203 0.209551
L-0.838203 -0.209551" id="C2_2_1ea29fede8"/>
    </defs>
    <g clip-path="url(#pbb8b53ce43)">
     <use style="fill:#008000;" x="140.269375" xlink:href="#C2_0_1ea29fede8" y="303.2596875"/>
    </g>
    <g clip-path="url(#pbb8b53ce43)">
     <use style="fill:#008000;" x="140.269375" xlink:href="#C2_1_1ea29fede8" y="303.2596875"/>
    </g>
    <g clip-path="url(#pbb8b53ce43)">
     <use style="fill:#008000;" x="140.269375" xlink:href="#C2_2_1ea29fede8" y="303.2596875"/>
    </g>
   </g>
   <g id="matplotlib.axis_1">
    <g id="xtick_1">
     <g id="line2d_1">
      <defs>
       <path d="
M0 0
L0 -4" id="mcb557df647" style="stroke:#000000;stroke-linecap:butt;stroke-width:0.5;"/>
      </defs>
      <g>
       <use style="stroke:#000000;stroke-linecap:butt;stroke-width:0.5;" x="82.669375" xlink:href="#mcb557df647" y="360.8596875"/>
      </g>
     </g>
     <g id="line2d_2">
      <defs>
       <path d="
M0 0
L0 4" id="mdad270ee8e" style="stroke:#000000;stroke-linecap:butt;stroke-width:0.5;"/>
      </defs>
      <g>
       <use style="stroke:#000000;stroke-linecap:butt;stroke-width:0.5;" x="82.669375" xlink:href="#mdad270ee8e" y="15.2596875"/>
      </g>
     </g>
     <g id="text_1">
      <!-- -1 -->
      <defs>
       <path d="
M12.4062 8.29688
L28.5156 8.29688
L28.5156 63.9219
L10.9844 60.4062
L10.9844 69.3906
L28.4219 72.9062
L38.2812 72.9062
L38.2812 8.29688
L54.3906 8.29688
L54.3906 0
L12.4062 0
z
" id="DejaVuSans-31"/>
       <path d="
M4.89062 31.3906
L31.2031 31.3906
L31.2031 23.3906
L4.89062 23.3906
z
" id="DejaVuSans-2d"/>
      </defs>
      <g transform="translate(77.5346875 373.6084375)scale(0.12 -0.12)">
       <use xlink:href="#DejaVuSans-2d"/>
       <use x="36.083984375" xlink:href="#DejaVuSans-31"/>
      </g>
     </g>
    </g>
    <g id="xtick_2">
     <g id="line2d_3">
      <g>
       <use style="stroke:#000000;stroke-linecap:butt;stroke-width:0.5;" x="140.269375" xlink:href="#mcb557df647" y="360.8596875"/>
      </g>
     </g>
     <g id="line2d_4">
      <g>
       <use style="stroke:#000000;stroke-linecap:butt;stroke-width:0.5;" x="140.269375" xlink:href="#mdad270ee8e" y="15.2596875"/>
      </g>
     </g>
     <g id="text_2">
      <!-- 0 -->
      <defs>
       <path d="
M31.7812 66.4062
Q24.1719 66.4062 20.3281 58.9062
Q16.5 51.4219 16.5 36.375
Q16.5 21.3906 20.3281 13.8906
Q24.1719 6.39062 31.7812 6.39062
Q39.4531 6.39062 43.2812 13.8906
Q47.125 21.3906 47.125 36.375
Q47.125 51.4219 43.2812 58.9062
Q39.4531 66.4062 31.7812 66.4062
M31.7812 74.2188
Q44.0469 74.2188 50.5156 64.5156
Q56.9844 54.8281 56.9844 36.375
Q56.9844 17.9688 50.5156 8.26562
Q44.0469 -1.42188 31.7812 -1.42188
Q19.5312 -1.42188 13.0625 8.26562
Q6.59375 17.9688 6.59375 36.375
Q6.59375 54.8281 13.0625 64.5156
Q19.5312 74.2188 31.7812 74.2188" id="DejaVuSans-30"/>
      </defs>
      <g transform="translate(137.2459375 373.7659375)scale(0.12 -0.12)">
       <use xlink:href="#DejaVuSans-30"/>
      </g>
     </g>
    </g>
    <g id="xtick_3">
     <g id="line2d_5">
      <g>
       <use style="stroke:#000000;stroke-linecap:butt;stroke-width:0.5;" x="197.869375" xlink:href="#mcb557df647" y="360.8596875"/>
      </g>
     </g>
     <g id="line2d_6">
      <g>
       <use style="stroke:#000000;stroke-linecap:butt;stroke-width:0.5;" x="197.869375" xlink:href="#mdad270ee8e" y="15.2596875"/>
      </g>
     </g>
     <g id="text_3">
      <!-- 1 -->
      <g transform="translate(195.265 373.6084375)scale(0.12 -0.12)">
       <use xlink:href="#DejaVuSans-31"/>
      </g>
     </g>
    </g>
    <g id="xtick_4">
     <g id="line2d_7">
      <g>
       <use style="stroke:#000000;stroke-linecap:butt;stroke-width:0.5;" x="255.469375" xlink:href="#mcb557df647" y="360.8596875"/>
      </g>
     </g>
     <g id="line2d_8">
      <g>
       <use style="stroke:#000000;stroke-linecap:butt;stroke-width:0.5;" x="255.469375" xlink:href="#mdad270ee8e" y="15.2596875"/>
      </g>
     </g>
     <g id="text_4">
      <!-- 2 -->
      <defs>
       <path d="
M19.1875 8.29688
L53.6094 8.29688
L53.6094 0
L7.32812 0
L7.32812 8.29688
Q12.9375 14.1094 22.625 23.8906
Q32.3281 33.6875 34.8125 36.5312
Q39.5469 41.8438 41.4219 45.5312
Q43.3125 49.2188 43.3125 52.7812
Q43.3125 58.5938 39.2344 62.25
Q35.1562 65.9219 28.6094 65.9219
Q23.9688 65.9219 18.8125 64.3125
Q13.6719 62.7031 7.8125 59.4219
L7.8125 69.3906
Q13.7656 71.7812 18.9375 73
Q24.125 74.2188 28.4219 74.2188
Q39.75 74.2188 46.4844 68.5469
Q53.2188 62.8906 53.2188 53.4219
Q53.2188 48.9219 51.5312 44.8906
Q49.8594 40.875 45.4062 35.4062
Q44.1875 33.9844 37.6406 27.2188
Q31.1094 20.4531 19.1875 8.29688" id="DejaVuSans-32"/>
      </defs>
      <g transform="translate(252.6925 373.7659375)scale(0.12 -0.12)">
       <use xlink:href="#DejaVuSans-32"/>
      </g>
     </g>
    </g>
   </g>
   <g id="matplotlib.axis_2">
    <g id="ytick_1">
     <g id="line2d_9">
      <defs>
       <path d="
M0 0
L4 0" id="mc8fcea1516" style="stroke:#000000;stroke-linecap:butt;stroke-width:0.5;"/>
      </defs>
      <g>
       <use style="stroke:#000000;stroke-linecap:butt;stroke-width:0.5;" x="25.069375" xlink:href="#mc8fcea1516" y="360.8596875"/>
      </g>
     </g>
     <g id="line2d_10">
      <defs>
       <path d="
M0 0
L-4 0" id="m0d5b0a6425" style="stroke:#000000;stroke-linecap:butt;stroke-width:0.5;"/>
      </defs>
      <g>
       <use style="stroke:#000000;stroke-linecap:butt;stroke-width:0.5;" x="255.469375" xlink:href="#m0d5b0a6425" y="360.8596875"/>
      </g>
     </g>
     <g id="text_5">
      <!-- -1 -->
      <g transform="translate(10.8 365.2340625)scale(0.12 -0.12)">
       <use xlink:href="#DejaVuSans-2d"/>
       <use x="36.083984375" xlink:href="#DejaVuSans-31"/>
      </g>
     </g>
    </g>
    <g id="ytick_2">
     <g id="line2d_11">
      <g>
       <use style="stroke:#000000;stroke-linecap:butt;stroke-width:0.5;" x="25.069375" xlink:href="#mc8fcea1516" y="303.2596875"/>
      </g>
     </g>
     <g id="line2d_12">
      <g>
       <use style="stroke:#000000;stroke-linecap:butt;stroke-width:0.5;" x="255.469375" xlink:href="#m0d5b0a6425" y="303.2596875"/>
      </g>
     </g>
     <g id="text_6">
      <!-- 0 -->
      <g transform="translate(15.0225 307.6275)scale(0.12 -0.12)">
       <use xlink:href="#DejaVuSans-30"/>
      </g>
     </g>
    </g>
    <g id="ytick_3">
     <g id="line2d_13">
      <g>
       <use style="stroke:#000000;stroke-linecap:butt;stroke-width:0.5;" x="25.069375" xlink:href="#mc8fcea1516" y="245.6596875"/>
      </g>
     </g>
     <g id="line2d_14">
      <g>
       <use style="stroke:#000000;stroke-linecap:butt;stroke-width:0.5;" x="255.469375" xlink:href="#m0d5b0a6425" y="245.6596875"/>
      </g>
     </g>
     <g id="text_7">
      <!-- 1 -->
      <g transform="translate(15.860625 250.0340625)scale(0.12 -0.12)">
       <use xlink:href="#DejaVuSans-31"/>
      </g>
     </g>
    </g>
    <g id="ytick_4">
     <g id="line2d_15">
      <g>
       <use style="stroke:#000000;stroke-linecap:butt;stroke-width:0.5;" x="25.069375" xlink:href="#mc8fcea1516" y="188.0596875"/>
      </g>
     </g>
     <g id="line2d_16">
      <g>
       <use style="stroke:#000000;stroke-linecap:butt;stroke-width:0.5;" x="255.469375" xlink:href="#m0d5b0a6425" y="188.0596875"/>
      </g>
     </g>
     <g id="text_8">
      <!-- 2 -->
      <g transform="translate(15.515625 192.5128125)scale(0.12 -0.12)">
       <use xlink:href="#DejaVuSans-32"/>
      </g>
     </g>
    </g>
    <g id="ytick_5">
     <g id="line2d_17">
      <g>
       <use style="stroke:#000000;stroke-linecap:butt;stroke-width:0.5;" x="25.069375" xlink:href="#mc8fcea1516" y="130.4596875"/>
      </g>
     </g>
     <g id="line2d_18">
      <g>
       <use style="stroke:#000000;stroke-linecap:butt;stroke-width:0.5;" x="255.469375" xlink:href="#m0d5b0a6425" y="130.4596875"/>
      </g>
     </g>
     <g id="text_9">
      <!-- 3 -->
      <defs>
       <path d="
M40.5781 39.3125
Q47.6562 37.7969 51.625 33
Q55.6094 28.2188 55.6094 21.1875
Q55.6094 10.4062 48.1875 4.48438
Q40.7656 -1.42188 27.0938 -1.42188
Q22.5156 -1.42188 17.6562 -0.515625
Q12.7969 0.390625 7.625 2.20312
L7.625 11.7188
Q11.7188 9.32812 16.5938 8.10938
Q21.4844 6.89062 26.8125 6.89062
Q36.0781 6.89062 40.9375 10.5469
Q45.7969 14.2031 45.7969 21.1875
Q45.7969 27.6406 41.2812 31.2656
Q36.7656 34.9062 28.7188 34.9062
L20.2188 34.9062
L20.2188 43.0156
L29.1094 43.0156
Q36.375 43.0156 40.2344 45.9219
Q44.0938 48.8281 44.0938 54.2969
Q44.0938 59.9062 40.1094 62.9062
Q36.1406 65.9219 28.7188 65.9219
Q24.6562 65.9219 20.0156 65.0312
Q15.375 64.1562 9.8125 62.3125
L9.8125 71.0938
Q15.4375 72.6562 20.3438 73.4375
Q25.25 74.2188 29.5938 74.2188
Q40.8281 74.2188 47.3594 69.1094
Q53.9062 64.0156 53.9062 55.3281
Q53.9062 49.2656 50.4375 45.0938
Q46.9688 40.9219 40.5781 39.3125" id="DejaVuSans-33"/>
      </defs>
      <g transform="translate(15.31125 134.8275)scale(0.12 -0.12)">
       <use xlink:href="#DejaVuSans-33"/>
      </g>
     </g>
    </g>
    <g id="ytick_6">
     <g id="line2d_19">
      <g>
       <use style="stroke:#000000;stroke-linecap:butt;stroke-width:0.5;" x="25.069375" xlink:href="#mc8fcea1516" y="72.8596875"/>
      </g>
     </g>
     <g id="line2d_20">
      <g>
       <use style="stroke:#000000;stroke-linecap:butt;stroke-width:0.5;" x="255.469375" xlink:href="#m0d5b0a6425" y="72.8596875"/>
      </g>
     </g>
     <g id="text_10">
      <!-- 4 -->
      <defs>
       <path d="
M37.7969 64.3125
L12.8906 25.3906
L37.7969 25.3906
z

M35.2031 72.9062
L47.6094 72.9062
L47.6094 25.3906
L58.0156 25.3906
L58.0156 17.1875
L47.6094 17.1875
L47.6094 0
L37.7969 0
L37.7969 17.1875
L4.89062 17.1875
L4.89062 26.7031
z
" id="DejaVuSans-34"/>
      </defs>
      <g transform="translate(14.694375 77.2340625)scale(0.12 -0.12)">
       <use xlink:href="#DejaVuSans-34"/>
      </g>
     </g>
    </g>
    <g id="ytick_7">
     <g id="line2d_21">
      <g>
       <use style="stroke:#000000;stroke-linecap:butt;stroke-width:0.5;" x="25.069375" xlink:href="#mc8fcea1516" y="15.2596875"/>
      </g>
     </g>
     <g id="line2d_22">
      <g>
       <use style="stroke:#000000;stroke-linecap:butt;stroke-width:0.5;" x="255.469375" xlink:href="#m0d5b0a6425" y="15.2596875"/>
      </g>
     </g>
     <g id="text_11">
      <!-- 5 -->
      <defs>
       <path d="
M10.7969 72.9062
L49.5156 72.9062
L49.5156 64.5938
L19.8281 64.5938
L19.8281 46.7344
Q21.9688 47.4688 24.1094 47.8281
Q26.2656 48.1875 28.4219 48.1875
Q40.625 48.1875 47.75 41.5
Q54.8906 34.8125 54.8906 23.3906
Q54.8906 11.625 47.5625 5.09375
Q40.2344 -1.42188 26.9062 -1.42188
Q22.3125 -1.42188 17.5469 -0.640625
Q12.7969 0.140625 7.71875 1.70312
L7.71875 11.625
Q12.1094 9.23438 16.7969 8.0625
Q21.4844 6.89062 26.7031 6.89062
Q35.1562 6.89062 40.0781 11.3281
Q45.0156 15.7656 45.0156 23.3906
Q45.0156 31 40.0781 35.4375
Q35.1562 39.8906 26.7031 39.8906
Q22.75 39.8906 18.8125 39.0156
Q14.8906 38.1406 10.7969 36.2812
z
" id="DejaVuSans-35"/>
      </defs>
      <g transform="translate(15.40875 19.54875)scale(0.12 -0.12)">
       <use xlink:href="#DejaVuSans-35"/>
      </g>
     </g>
    </g>
   </g>
   <g id="patch_4">
    <path d="
M25.0694 15.2597
L255.469 15.2597" style="fill:none;stroke:#000000;"/>
   </g>
   <g id="patch_5">
    <path d="
M255.469 360.86
L255.469 15.2597" style="fill:none;stroke:#000000;"/>
   </g>
   <g id="patch_6">
    <path d="
M25.0694 360.86
L255.469 360.86" style="fill:none;stroke:#000000;"/>
   </g>
   <g id="patch_7">
    <path d="
M25.0694 360.86
L25.0694 15.2597" style="fill:none;stroke:#000000;"/>
   </g>
   <g id="text_12">
    <!-- $\mu=|\cos (30.96)|=0.8575$ -->
    <defs>
     <path d="
M9.51562 7.71875
Q11.8594 4.29688 15.8125 2.64062
Q19.7812 0.984375 24.3125 0.984375
Q30.125 0.984375 32.5625 5.9375
Q35.0156 10.8906 35.0156 17.1875
Q35.0156 20.0156 34.5 22.8438
Q33.9844 25.6875 32.7656 28.125
Q31.5469 30.5625 29.4219 32.0312
Q27.2969 33.5 24.2188 33.5
L17.5781 33.5
Q16.7031 33.5 16.7031 34.4219
L16.7031 35.2969
Q16.7031 36.0781 17.5781 36.0781
L23.0938 36.5312
Q26.6094 36.5312 28.9219 39.1562
Q31.25 41.7969 32.3281 45.5781
Q33.4062 49.3594 33.4062 52.7812
Q33.4062 57.5625 31.1562 60.6406
Q28.9062 63.7188 24.3125 63.7188
Q20.5156 63.7188 17.0469 62.2812
Q13.5781 60.8438 11.5312 57.9062
Q11.7188 57.9531 11.8594 57.9844
Q12.0156 58.0156 12.2031 58.0156
Q14.4531 58.0156 15.9688 56.4531
Q17.4844 54.8906 17.4844 52.6875
Q17.4844 50.5312 15.9688 48.9688
Q14.4531 47.4062 12.2031 47.4062
Q10.0156 47.4062 8.45312 48.9688
Q6.89062 50.5312 6.89062 52.6875
Q6.89062 56.9844 9.46875 60.1562
Q12.0625 63.3281 16.1406 64.9688
Q20.2188 66.6094 24.3125 66.6094
Q27.3438 66.6094 30.7031 65.7031
Q34.0781 64.7969 36.8125 63.1094
Q39.5469 61.4219 41.2812 58.7812
Q43.0156 56.1562 43.0156 52.7812
Q43.0156 48.5781 41.1406 45.0156
Q39.2656 41.4531 35.9844 38.8594
Q32.7188 36.2812 28.8125 35.0156
Q33.1562 34.1875 37.0625 31.7344
Q40.9688 29.2969 43.3281 25.4844
Q45.7031 21.6875 45.7031 17.2812
Q45.7031 11.7656 42.6719 7.29688
Q39.6562 2.82812 34.7188 0.3125
Q29.7812 -2.20312 24.3125 -2.20312
Q19.625 -2.20312 14.9062 -0.40625
Q10.2031 1.375 7.20312 4.9375
Q4.20312 8.5 4.20312 13.4844
Q4.20312 15.9688 5.85938 17.625
Q7.51562 19.2812 10.0156 19.2812
Q11.625 19.2812 12.9688 18.5312
Q14.3125 17.7812 15.0625 16.4062
Q15.8281 15.0469 15.8281 13.4844
Q15.8281 11.0312 14.1094 9.375
Q12.4062 7.71875 10.0156 7.71875
z
" id="Cmr10-33"/>
     <path d="
M25 -2.20312
Q12.75 -2.20312 8.32812 7.875
Q3.90625 17.9688 3.90625 31.8906
Q3.90625 40.5781 5.48438 48.2344
Q7.07812 55.9062 11.7812 61.25
Q16.5 66.6094 25 66.6094
Q31.5938 66.6094 35.7812 63.375
Q39.9844 60.1562 42.1875 55.0469
Q44.3906 49.9531 45.1875 44.1094
Q46 38.2812 46 31.8906
Q46 23.2969 44.4062 15.7969
Q42.8281 8.29688 38.1875 3.04688
Q33.5469 -2.20312 25 -2.20312
M25 0.390625
Q30.5625 0.390625 33.2969 6.09375
Q36.0312 11.8125 36.6719 18.75
Q37.3125 25.6875 37.3125 33.5
Q37.3125 41.0156 36.6719 47.3594
Q36.0312 53.7188 33.3125 58.8594
Q30.6094 64.0156 25 64.0156
Q19.3438 64.0156 16.6094 58.8281
Q13.875 53.6562 13.2344 47.3281
Q12.5938 41.0156 12.5938 33.5
Q12.5938 27.9375 12.8594 23
Q13.1406 18.0625 14.3125 12.8125
Q15.4844 7.5625 18.0938 3.96875
Q20.7031 0.390625 25 0.390625" id="Cmr10-30"/>
     <path d="
M17.3906 2.59375
Q17.3906 8.15625 18.3594 13.4688
Q19.3438 18.7969 21.2188 24
Q23.0938 29.2031 25.75 34.2031
Q28.4219 39.2031 31.5938 43.6094
L40.7188 56.2969
L29.2969 56.2969
Q11.5312 56.2969 10.9844 55.8125
Q9.67188 54.2031 8.5 46.5781
L5.60938 46.5781
L8.89062 67.5781
L11.8125 67.5781
L11.8125 67.2812
Q11.8125 65.4844 17.9219 64.9375
Q24.0312 64.4062 29.8906 64.4062
L48.4844 64.4062
L48.4844 61.8125
Q48.4844 61.7188 48.4531 61.6719
Q48.4375 61.625 48.3906 61.5312
L34.625 42.1875
Q29.5469 34.6719 28.2656 25.4844
Q27 16.3125 27 2.59375
Q27 0.640625 25.5781 -0.78125
Q24.1719 -2.20312 22.2188 -2.20312
Q20.2188 -2.20312 18.7969 -0.78125
Q17.3906 0.640625 17.3906 2.59375" id="Cmr10-37"/>
     <path d="
M25 -2.20312
Q18.7969 -2.20312 14.6406 1.09375
Q10.5 4.39062 8.21875 9.64062
Q5.95312 14.8906 5.07812 20.6562
Q4.20312 26.4219 4.20312 32.3281
Q4.20312 40.2344 7.28125 48.1875
Q10.3594 56.1562 16.3281 61.375
Q22.3125 66.6094 30.5156 66.6094
Q33.9375 66.6094 36.8906 65.3125
Q39.8438 64.0156 41.5312 61.5
Q43.2188 58.9844 43.2188 55.4219
Q43.2188 53.375 41.8281 51.9844
Q40.4375 50.5938 38.375 50.5938
Q36.4219 50.5938 35 52
Q33.5938 53.4219 33.5938 55.4219
Q33.5938 57.375 35 58.7812
Q36.4219 60.2031 38.375 60.2031
L38.9219 60.2031
Q37.6406 62.0156 35.3281 62.8594
Q33.0156 63.7188 30.5156 63.7188
Q27.4844 63.7188 24.9219 62.3906
Q22.3594 61.0781 20.3125 58.8281
Q18.2656 56.5938 16.8906 53.875
Q15.5312 51.1719 14.7656 47.7031
Q14.0156 44.2344 13.8125 41.2031
Q13.625 38.1875 13.625 33.5938
Q15.375 37.7031 18.5938 40.3125
Q21.8281 42.9219 25.875 42.9219
Q30.3281 42.9219 33.9844 41.1094
Q37.6406 39.3125 40.2812 36.1094
Q42.9219 32.9062 44.3125 28.7969
Q45.7031 24.7031 45.7031 20.5156
Q45.7031 14.6562 43.0938 9.34375
Q40.4844 4.04688 35.7344 0.921875
Q31 -2.20312 25 -2.20312
M25 0.984375
Q28.8594 0.984375 31.2031 2.73438
Q33.5469 4.5 34.6406 7.39062
Q35.75 10.2969 36.0156 13.25
Q36.2812 16.2188 36.2812 20.5156
Q36.2812 26.1719 35.7344 30.1719
Q35.2031 34.1875 32.8125 37.2344
Q30.4219 40.2812 25.4844 40.2812
Q21.4375 40.2812 18.8281 37.5469
Q16.2188 34.8125 15.0156 30.6406
Q13.8125 26.4688 13.8125 22.6094
Q13.8125 21.2969 13.9219 20.6094
Q13.9219 20.4531 13.8906 20.3594
Q13.875 20.2656 13.8125 20.125
Q13.8125 15.8281 14.6875 11.4219
Q15.5781 7.03125 18.0625 4
Q20.5625 0.984375 25 0.984375" id="Cmr10-36"/>
     <path d="
M8.6875 11.375
Q9.71875 8.45312 11.8438 6.04688
Q13.9688 3.65625 16.875 2.3125
Q19.7812 0.984375 22.9062 0.984375
Q30.125 0.984375 32.8594 6.59375
Q35.5938 12.2031 35.5938 20.2188
Q35.5938 23.6875 35.4688 26.0469
Q35.3594 28.4219 34.8125 30.6094
Q33.8906 34.125 31.5625 36.7656
Q29.25 39.4062 25.875 39.4062
Q22.5156 39.4062 20.0938 38.375
Q17.6719 37.3594 16.1562 35.9844
Q14.6562 34.625 13.4844 33.1094
Q12.3125 31.5938 12.0156 31.5
L10.8906 31.5
Q10.6406 31.5 10.2656 31.8125
Q9.90625 32.125 9.90625 32.4219
L9.90625 65.8281
Q9.90625 66.0625 10.2188 66.3281
Q10.5469 66.6094 10.8906 66.6094
L11.1875 66.6094
Q17.9219 63.375 25.4844 63.375
Q32.9062 63.375 39.7969 66.6094
L40.0938 66.6094
Q40.4375 66.6094 40.7188 66.3594
Q41.0156 66.1094 41.0156 65.8281
L41.0156 64.8906
Q41.0156 64.4062 40.8281 64.4062
Q37.4062 59.8594 32.25 57.3125
Q27.0938 54.7812 21.5781 54.7812
Q17.5781 54.7812 13.375 55.9062
L13.375 37.0156
Q16.7031 39.7031 19.3125 40.8438
Q21.9219 42 25.9844 42
Q31.5 42 35.8594 38.8125
Q40.2344 35.6406 42.5781 30.5312
Q44.9219 25.4375 44.9219 20.125
Q44.9219 14.1094 41.9688 8.98438
Q39.0156 3.85938 33.9375 0.828125
Q28.8594 -2.20312 22.9062 -2.20312
Q17.9688 -2.20312 13.8438 0.328125
Q9.71875 2.875 7.34375 7.17188
Q4.98438 11.4688 4.98438 16.3125
Q4.98438 18.5625 6.4375 19.9688
Q7.90625 21.3906 10.1094 21.3906
Q12.3125 21.3906 13.7969 19.9375
Q15.2812 18.5 15.2812 16.3125
Q15.2812 14.1562 13.7969 12.6719
Q12.3125 11.1875 10.1094 11.1875
Q9.76562 11.1875 9.32812 11.25
Q8.89062 11.3281 8.6875 11.375" id="Cmr10-35"/>
     <path d="
M31 -24.8125
Q25.4375 -20.4062 21.4062 -14.7188
Q17.3906 -9.03125 14.8125 -2.57812
Q12.25 3.85938 10.9844 10.8906
Q9.71875 17.9219 9.71875 25
Q9.71875 32.1719 10.9844 39.2031
Q12.25 46.2344 14.8594 52.7344
Q17.4844 59.2344 21.5312 64.8906
Q25.5938 70.5625 31 74.8125
Q31 75 31.5 75
L32.4219 75
Q32.7188 75 32.9531 74.7344
Q33.2031 74.4688 33.2031 74.125
Q33.2031 73.6875 33.0156 73.4844
Q28.125 68.7031 24.875 63.2344
Q21.625 57.7656 19.6406 51.5781
Q17.6719 45.4062 16.7969 38.7812
Q15.9219 32.1719 15.9219 25
Q15.9219 -6.78125 32.9062 -23.2969
Q33.2031 -23.5781 33.2031 -24.125
Q33.2031 -24.3594 32.9375 -24.6719
Q32.6719 -25 32.4219 -25
L31.5 -25
Q31 -25 31 -24.8125" id="Cmr10-28"/>
     <path d="
M6.5 -25
Q5.60938 -25 5.60938 -24.125
Q5.60938 -23.6875 5.8125 -23.4844
Q22.9062 -6.78125 22.9062 25
Q22.9062 56.7812 6 73.2969
Q5.60938 73.5312 5.60938 74.125
Q5.60938 74.4688 5.875 74.7344
Q6.15625 75 6.5 75
L7.42188 75
Q7.71875 75 7.90625 74.8125
Q15.0938 69.1406 19.875 61.0312
Q24.6562 52.9375 26.875 43.75
Q29.1094 34.5781 29.1094 25
Q29.1094 17.9219 27.9062 11.0625
Q26.7031 4.20312 24.0938 -2.45312
Q21.4844 -9.125 17.4844 -14.7656
Q13.4844 -20.4062 7.90625 -24.8125
Q7.71875 -25 7.42188 -25
z
" id="Cmr10-29"/>
     <path d="
M25 -1.125
Q19 -1.125 13.8594 1.92188
Q8.73438 4.98438 5.75 10.1094
Q2.78125 15.2344 2.78125 21.2969
Q2.78125 25.875 4.42188 30.125
Q6.0625 34.375 9.10938 37.7188
Q12.1562 41.0625 16.2031 42.9375
Q20.2656 44.8281 25 44.8281
Q31.1562 44.8281 36.2031 41.5781
Q41.2656 38.3281 44.1875 32.875
Q47.125 27.4375 47.125 21.2969
Q47.125 15.2812 44.1406 10.125
Q41.1562 4.98438 36.0469 1.92188
Q30.9531 -1.125 25 -1.125
M25 1.8125
Q33.0156 1.8125 35.6875 7.60938
Q38.375 13.4219 38.375 22.4062
Q38.375 27.4375 37.8438 30.7344
Q37.3125 34.0312 35.5 36.7188
Q34.375 38.375 32.6406 39.625
Q30.9062 40.875 28.9688 41.5312
Q27.0469 42.1875 25 42.1875
Q21.875 42.1875 19.0625 40.7656
Q16.2656 39.3594 14.4062 36.7188
Q12.5469 33.8906 12.0312 30.4844
Q11.5312 27.0938 11.5312 22.4062
Q11.5312 16.7969 12.5 12.3281
Q13.4844 7.85938 16.4375 4.82812
Q19.3906 1.8125 25 1.8125" id="Cmr10-6f"/>
     <path d="
M4.20312 15.1875
Q4.20312 21.1875 8.15625 25.7969
Q12.1094 30.4219 18.3125 33.5
L14.5938 35.8906
Q11.1875 38.1406 9.03125 41.875
Q6.89062 45.6094 6.89062 49.7031
Q6.89062 54.5 9.40625 58.3438
Q11.9219 62.2031 16.0938 64.4062
Q20.2656 66.6094 25 66.6094
Q29.4375 66.6094 33.5625 64.7969
Q37.7031 62.9844 40.3594 59.6094
Q43.0156 56.25 43.0156 51.6094
Q43.0156 48.25 41.4219 45.3594
Q39.8438 42.4844 37.0781 40.1875
Q34.3281 37.8906 31.2031 36.2812
L36.9219 32.625
Q40.875 30.0312 43.2812 25.8281
Q45.7031 21.625 45.7031 17
Q45.7031 11.5781 42.7969 7.125
Q39.8906 2.6875 35.1094 0.234375
Q30.3281 -2.20312 25 -2.20312
Q19.8281 -2.20312 15.0156 -0.09375
Q10.2031 2 7.20312 5.98438
Q4.20312 9.96875 4.20312 15.1875
M9.625 15.1875
Q9.625 11.2344 11.7969 7.95312
Q13.9688 4.6875 17.5312 2.82812
Q21.0938 0.984375 25 0.984375
Q30.8125 0.984375 35.5469 4.375
Q40.2812 7.76562 40.2812 13.375
Q40.2812 15.2812 39.5156 17.1562
Q38.7656 19.0469 37.4219 20.5781
Q36.0781 22.125 34.4219 23.0938
L21 31.7812
Q17.875 30.125 15.25 27.5781
Q12.6406 25.0469 11.125 21.875
Q9.625 18.7031 9.625 15.1875
M16.5 45.7031
L28.6094 37.8906
Q32.8125 40.3281 35.5 43.7969
Q38.1875 47.2656 38.1875 51.6094
Q38.1875 54.9844 36.2969 57.7812
Q34.4219 60.5938 31.3906 62.1562
Q28.375 63.7188 24.9062 63.7188
Q21.875 63.7188 18.7969 62.5469
Q15.7188 61.375 13.7188 59.0469
Q11.7188 56.7344 11.7188 53.6094
Q11.7188 48.9219 16.5 45.7031" id="Cmr10-38"/>
     <path d="
M11.9219 -23.1875
L11.9219 73.1875
Q11.9219 73.9688 12.5 74.4844
Q13.0938 75 13.9219 75
Q14.6562 75 15.2812 74.4844
Q15.9219 73.9688 15.9219 73.1875
L15.9219 -23.1875
Q15.9219 -23.9688 15.2812 -24.4844
Q14.6562 -25 13.9219 -25
Q13.0938 -25 12.5 -24.4844
Q11.9219 -23.9688 11.9219 -23.1875" id="Cmsy10-6a"/>
     <path d="
M2.78125 -18.7969
Q2.78125 -18.2188 2.875 -18.0156
L17.5781 41.0156
Q18.0156 42.4375 19.1562 43.3125
Q20.3125 44.1875 21.7812 44.1875
Q23.0469 44.1875 23.9219 43.4219
Q24.8125 42.6719 24.8125 41.4062
Q24.8125 41.1094 24.7812 40.9375
Q24.75 40.7656 24.7031 40.5781
L18.7969 17.1875
Q17.8281 13.0312 17.8281 10.0156
Q17.8281 6.29688 19.5781 3.90625
Q21.3438 1.51562 24.9062 1.51562
Q32.1719 1.51562 37.7031 10.5938
Q37.75 10.6875 37.7656 10.7344
Q37.7969 10.7969 37.7969 10.8906
L45.0156 39.8906
Q45.3594 41.2188 46.5781 42.1562
Q47.7969 43.1094 49.2188 43.1094
Q50.3906 43.1094 51.2969 42.3281
Q52.2031 41.5469 52.2031 40.2812
Q52.2031 39.7031 52.0938 39.5
L44.9219 10.6875
Q44.1875 7.85938 44.1875 5.8125
Q44.1875 1.51562 47.125 1.51562
Q50.25 1.51562 51.8281 5.375
Q53.4219 9.23438 54.5938 14.7031
Q54.7812 15.2812 55.4219 15.2812
L56.5938 15.2812
Q56.9844 15.2812 57.25 14.9688
Q57.5156 14.6562 57.5156 14.3125
Q55.7656 7.32812 53.6875 3.09375
Q51.6094 -1.125 46.9219 -1.125
Q43.6094 -1.125 41.0469 0.78125
Q38.4844 2.6875 37.7031 5.90625
Q35.2031 2.78125 31.8594 0.828125
Q28.5156 -1.125 24.8125 -1.125
Q18.5625 -1.125 14.9844 1.8125
L9.90625 -18.4062
Q9.625 -19.8281 8.45312 -20.7031
Q7.28125 -21.5781 5.8125 -21.5781
Q4.59375 -21.5781 3.6875 -20.8125
Q2.78125 -20.0625 2.78125 -18.7969" id="Cmmi10-b9"/>
     <path d="
M7.51562 13.2812
Q6.6875 13.2812 6.14062 13.9062
Q5.60938 14.5469 5.60938 15.2812
Q5.60938 16.1094 6.14062 16.6875
Q6.6875 17.2812 7.51562 17.2812
L70.3125 17.2812
Q71.0469 17.2812 71.5781 16.6875
Q72.125 16.1094 72.125 15.2812
Q72.125 14.5469 71.5781 13.9062
Q71.0469 13.2812 70.3125 13.2812
z

M7.51562 32.7188
Q6.6875 32.7188 6.14062 33.2969
Q5.60938 33.8906 5.60938 34.7188
Q5.60938 35.4531 6.14062 36.0781
Q6.6875 36.7188 7.51562 36.7188
L70.3125 36.7188
Q71.0469 36.7188 71.5781 36.0781
Q72.125 35.4531 72.125 34.7188
Q72.125 33.8906 71.5781 33.2969
Q71.0469 32.7188 70.3125 32.7188
z
" id="Cmr10-3d"/>
     <path d="
M8.40625 5.51562
Q8.40625 7.76562 10.0625 9.375
Q11.7188 10.9844 13.9219 10.9844
Q15.2812 10.9844 16.5938 10.25
Q17.9219 9.51562 18.6562 8.20312
Q19.3906 6.89062 19.3906 5.51562
Q19.3906 3.32812 17.7656 1.65625
Q16.1562 0 13.9219 0
Q11.7188 0 10.0625 1.65625
Q8.40625 3.32812 8.40625 5.51562" id="Cmmi10-3a"/>
     <path d="
M3.32812 -0.296875
L3.32812 16.0156
Q3.32812 16.7969 4.20312 16.7969
L5.42188 16.7969
Q6 16.7969 6.20312 16.0156
Q8.98438 1.51562 19.6719 1.51562
Q24.4219 1.51562 27.6094 3.65625
Q30.8125 5.8125 30.8125 10.2969
Q30.8125 13.5312 28.3125 15.7969
Q25.8281 18.0625 22.4062 18.8906
L15.7188 20.2188
Q12.3594 20.9531 9.59375 22.4531
Q6.84375 23.9688 5.07812 26.4844
Q3.32812 29 3.32812 32.3281
Q3.32812 36.7188 5.64062 39.5156
Q7.95312 42.3281 11.6562 43.5781
Q15.375 44.8281 19.6719 44.8281
Q24.8125 44.8281 28.6094 42.0938
L31.5 44.5781
Q31.5 44.8281 31.9844 44.8281
L32.7188 44.8281
Q33.0156 44.8281 33.25 44.5469
Q33.5 44.2812 33.5 44
L33.5 30.9062
Q33.5 29.9844 32.7188 29.9844
L31.5 29.9844
Q30.6094 29.9844 30.6094 30.9062
Q30.6094 36.1406 27.7031 39.3125
Q24.8125 42.4844 19.5781 42.4844
Q15.0938 42.4844 11.7969 40.8125
Q8.5 39.1562 8.5 35.1094
Q8.5 32.3281 10.8594 30.5469
Q13.2344 28.7656 16.4062 27.9844
L23.1875 26.7031
Q26.6094 25.9219 29.5625 24.0625
Q32.5156 22.2188 34.25 19.375
Q35.9844 16.5469 35.9844 12.9844
Q35.9844 9.375 34.7344 6.70312
Q33.5 4.04688 31.2656 2.28125
Q29.0469 0.53125 26.0156 -0.296875
Q23 -1.125 19.6719 -1.125
Q13.4219 -1.125 8.98438 3.07812
L5.32812 -0.875
Q5.32812 -1.125 4.78125 -1.125
L4.20312 -1.125
Q3.32812 -1.125 3.32812 -0.296875" id="Cmr10-73"/>
     <path d="
M11.2812 4.20312
Q14.0156 0.984375 20.7969 0.984375
Q24.6094 0.984375 27.9062 3.5625
Q31.2031 6.15625 33.0156 9.90625
Q35.1094 14.1562 35.6875 18.9688
Q36.2812 23.7812 36.2812 30.9062
Q34.5781 26.8594 31.375 24.2656
Q28.1719 21.6875 24.0312 21.6875
Q18.2188 21.6875 13.6406 24.8281
Q9.07812 27.9844 6.64062 33.125
Q4.20312 38.2812 4.20312 44.0938
Q4.20312 50.0938 6.9375 55.2969
Q9.67188 60.5 14.5 63.5469
Q19.3438 66.6094 25.4844 66.6094
Q31.5469 66.6094 35.625 63.3125
Q39.7031 60.0156 41.8438 54.8125
Q44 49.6094 44.8438 43.7969
Q45.7031 37.9844 45.7031 32.3281
Q45.7031 24.6094 42.875 16.5781
Q40.0469 8.54688 34.4062 3.17188
Q28.7656 -2.20312 20.7969 -2.20312
Q14.8906 -2.20312 10.7812 0.578125
Q6.6875 3.375 6.6875 8.98438
Q6.6875 11.0312 8.07812 12.4219
Q9.46875 13.8125 11.5312 13.8125
Q13.5312 13.8125 14.9219 12.4219
Q16.3125 11.0312 16.3125 8.98438
Q16.3125 7.03125 14.8906 5.60938
Q13.4844 4.20312 11.5312 4.20312
z

M24.4219 24.3125
Q28.5156 24.3125 31.125 27.0625
Q33.7344 29.8281 34.9062 33.9219
Q36.0781 38.0312 36.0781 42.0938
L36.0781 44
L36.0781 44.3906
Q36.0781 51.9062 33.875 57.8125
Q31.6875 63.7188 25.4844 63.7188
Q21.5312 63.7188 19.0625 61.9844
Q16.6094 60.25 15.4375 57.375
Q14.2656 54.5 13.9375 51.2188
Q13.625 47.9531 13.625 44.0938
Q13.625 38.4219 14.1562 34.4219
Q14.7031 30.4219 17.0938 27.3594
Q19.4844 24.3125 24.4219 24.3125" id="Cmr10-39"/>
     <path d="
M24.9062 -1.125
Q18.8438 -1.125 13.9062 2.01562
Q8.98438 5.17188 6.15625 10.4219
Q3.32812 15.6719 3.32812 21.5781
Q3.32812 27.4844 6.125 32.9062
Q8.9375 38.3281 13.8906 41.5781
Q18.8438 44.8281 24.9062 44.8281
Q30.7656 44.8281 35.5625 42.5312
Q40.375 40.2344 40.375 35.0156
Q40.375 33.0625 38.9844 31.6094
Q37.5938 30.1719 35.5938 30.1719
Q33.5938 30.1719 32.2031 31.6094
Q30.8125 33.0625 30.8125 35.0156
Q30.8125 36.7656 31.9375 38.0625
Q33.0625 39.3594 34.7188 39.7031
Q31.25 41.8906 25 41.8906
Q20.2188 41.8906 17.2812 38.7188
Q14.3594 35.5469 13.1875 30.8594
Q12.0156 26.1719 12.0156 21.5781
Q12.0156 16.75 13.4531 12.2344
Q14.8906 7.71875 18.0938 4.76562
Q21.2969 1.8125 26.125 1.8125
Q30.8594 1.8125 34.1719 4.71875
Q37.5 7.625 38.7188 12.3125
Q38.7188 12.8906 39.5 12.8906
L40.7188 12.8906
Q41.0156 12.8906 41.25 12.625
Q41.5 12.3594 41.5 12.0156
L41.5 11.7188
Q39.9844 5.8125 35.4844 2.34375
Q31 -1.125 24.9062 -1.125" id="Cmr10-63"/>
    </defs>
    <g transform="translate(166.980279455 268.260970146)rotate(-60.481878266)scale(0.12 -0.12)">
     <use transform="translate(0.0 25.0)" xlink:href="#Cmmi10-b9"/>
     <use transform="translate(77.763671875 25.0)" xlink:href="#Cmr10-3d"/>
     <use transform="translate(161.822265625 25.0)" xlink:href="#Cmsy10-6a"/>
     <use transform="translate(189.5078125 25.0)" xlink:href="#Cmr10-63"/>
     <use transform="translate(233.892578125 25.0)" xlink:href="#Cmr10-6f"/>
     <use transform="translate(283.892578125 25.0)" xlink:href="#Cmr10-73"/>
     <use transform="translate(323.296875 25.0)" xlink:href="#Cmr10-28"/>
     <use transform="translate(362.115234375 25.0)" xlink:href="#Cmr10-33"/>
     <use transform="translate(412.115234375 25.0)" xlink:href="#Cmr10-30"/>
     <use transform="translate(462.115234375 25.0)" xlink:href="#Cmmi10-3a"/>
     <use transform="translate(490.658203125 25.0)" xlink:href="#Cmr10-39"/>
     <use transform="translate(540.658203125 25.0)" xlink:href="#Cmr10-36"/>
     <use transform="translate(590.658203125 25.0)" xlink:href="#Cmr10-29"/>
     <use transform="translate(629.4765625 25.0)" xlink:href="#Cmsy10-6a"/>
     <use transform="translate(674.720703125 25.0)" xlink:href="#Cmr10-3d"/>
     <use transform="translate(758.779296875 25.0)" xlink:href="#Cmr10-30"/>
     <use transform="translate(808.779296875 25.0)" xlink:href="#Cmmi10-3a"/>
     <use transform="translate(837.322265625 25.0)" xlink:href="#Cmr10-38"/>
     <use transform="translate(887.322265625 25.0)" xlink:href="#Cmr10-35"/>
     <use transform="translate(937.322265625 25.0)" xlink:href="#Cmr10-37"/>
     <use transform="translate(987.322265625 25.0)" xlink:href="#Cmr10-35"/>
    </g>
   </g>
  </g>
 </g>
 <defs>
  <clipPath id="pbb8b53ce43">
   <rect height="345.6" width="230.4" x="25.069375" y="15.2596875"/>
  </clipPath>
 </defs>
</svg>
